<svg id="Capa_1" enable-background="new 0 0 512 512" height="512" viewBox="0 0 512 512" width="512" xmlns="http://www.w3.org/2000/svg"><g><g><g><g><g><g><g><g><g><g><g><g><path d="m449.966 461.464h-387.932v-302.812l190.988-110.271 196.944 100.488z" fill="#f7f4f3"/></g></g></g></g></g></g></g></g></g><g><path d="m449.966 148.869-193.966-98.191v410.786h193.966z" fill="#eee9e7"/></g><g><path d="m256 71.624-237.397 123.268-18.603-23.212 256-138.178 8.692 21.704z" fill="#fc445f"/></g><g><path d="m493.397 194.892-237.397-123.268v-38.122l256 138.178z" fill="#e1105a"/></g></g></g><path d="m258.596 200.999h-135.845v51.115l21.08 24.357-21.08 28.314v47.55l21.08 26.335-21.08 26.336v56.458h135.845z" fill="#7d89e5"/><path d="m122.751 252.114h133.249v52.671h-133.249z" fill="#bec4f2"/><path d="m122.751 352.335h133.249v52.671h-133.249z" fill="#bec4f2"/><path d="m256 200.999v51.115l10.54 24.357-10.54 28.314v47.55l10.54 26.335-10.54 26.336v56.458h133.249v-56.458l-9.317-26.336 9.317-26.335v-47.55l-9.317-26.335 9.317-26.336v-51.115z" fill="#6260d0"/><path d="m256 252.114h133.249v52.671h-133.249z" fill="#a4aced"/><path d="m256 352.335h133.249v52.671h-133.249z" fill="#a4aced"/><g><path d="m17.034 448.751h477.933v29.747h-477.933z" fill="#97de3d"/></g><path d="m494.966 478.498h-238.966v-29.747h238.966" fill="#59c36a"/></g></svg>