<svg height="512" viewBox="0 0 64 64" width="512" xmlns="http://www.w3.org/2000/svg"><g id="computer_setting" data-name="computer setting"><path d="m57 19h-50a2 2 0 0 0 -2 2v36h54v-36a2 2 0 0 0 -2-2z" fill="#57a4ff"/><path d="m59 21v36h-4v-36a2.006 2.006 0 0 0 -2-2h4a2.006 2.006 0 0 1 2 2z" fill="#2488ff"/><path d="m61 55-.72 4.33a2.006 2.006 0 0 1 -1.97 1.67h-52.62a2.006 2.006 0 0 1 -1.97-1.67l-.72-4.33h25v2h8v-2z" fill="#e0e0e2"/><path d="m61 55-.72 4.33a2.006 2.006 0 0 1 -1.97 1.67h-5a2.006 2.006 0 0 0 1.97-1.67l.72-4.33z" fill="#c6c5ca"/><rect fill="#46f8ff" height="16" rx="2" width="16" x="39" y="35"/><path d="m55 37v12a2.006 2.006 0 0 1 -2 2h-4a2.006 2.006 0 0 0 2-2v-12a2.006 2.006 0 0 0 -2-2h4a2.006 2.006 0 0 1 2 2z" fill="#00e7f0"/><path d="m51.75 15.31a6.022 6.022 0 0 1 -.34.83l2.01 2.58-.28.28-2.42 2.42-2.58-2.01a6.022 6.022 0 0 1 -.83.34l-.41 3.25h-3.8l-.41-3.25a6.022 6.022 0 0 1 -.83-.34l-2.58 2.01-2.42-2.42-.28-.28 2.01-2.58a6.022 6.022 0 0 1 -.34-.83l-3.25-.41v-3.8l3.25-.41a6.022 6.022 0 0 1 .34-.83l-2.01-2.58 2.7-2.7 2.58 2.01a6.022 6.022 0 0 1 .83-.34l.41-3.25h3.8l.41 3.25a6.022 6.022 0 0 1 .83.34l2.58-2.01 2.7 2.7-2.01 2.58a6.022 6.022 0 0 1 .34.83l3.25.41v3.8z" fill="#c0ab91"/><path d="m51.75 15.31a6.022 6.022 0 0 1 -.34.83l2.01 2.58-2.7 2.7-2.58-2.01a6.022 6.022 0 0 1 -.83.34l-.41 3.25h-3.8l-.41-3.25a6.022 6.022 0 0 1 -.83-.34l-2.58 2.01-1.37-1.37a21.327 21.327 0 0 0 10.09-7.05 20.921 20.921 0 0 0 3.66-7.48l1.76 1.76-2.01 2.58a6.022 6.022 0 0 1 .34.83l3.25.41v3.8z" fill="#b39a7c"/><circle cx="45" cy="13" fill="#ffde55" r="4"/><path d="m35 43v8h-26v-8a4 4 0 0 1 4-4h18a4 4 0 0 1 4 4z" fill="#ff7956"/><path d="m35 43v8h-4v-8a4 4 0 0 0 -4-4h4a4 4 0 0 1 4 4z" fill="#ff6243"/><path d="m31 25v1a1 1 0 0 1 -1 1h-2v-3h2a1 1 0 0 1 1 1z" fill="#ffdaaa"/><path d="m31 20v1l-3 3v-3l-8-2-4 2v3l-3-3v-1a5.47 5.47 0 0 1 .09-1 5.99 5.99 0 0 1 5.91-5h6a5.99 5.99 0 0 1 5.91 5 5.47 5.47 0 0 1 .09 1z" fill="#ffde55"/><path d="m29 39-2 8h-10l-2-8 7 4z" fill="#ffde55"/><path d="m29 39-7 4-7-4 4-3v-3.81a5.961 5.961 0 0 0 6 0v3.81z" fill="#ffdaaa"/><path d="m28 21v6a5.985 5.985 0 0 1 -3 5.19 5.961 5.961 0 0 1 -6 0 5.985 5.985 0 0 1 -3-5.19v-6l4-2z" fill="#ffdaaa"/><path d="m31 20v1l-3 3v-2l1-1v-1a5.47 5.47 0 0 0 -.09-1 5.99 5.99 0 0 0 -5.91-5h2a5.99 5.99 0 0 1 5.91 5 5.47 5.47 0 0 1 .09 1z" fill="#ffcd00"/><path d="m29 39-7 4-1-.57 6-3.43-4-3v-3.08a5.79 5.79 0 0 0 2-.73v3.81z" fill="#ffc477"/><path d="m28 21v6a5.985 5.985 0 0 1 -3 5.19 5.857 5.857 0 0 1 -3 .81 6.531 6.531 0 0 1 -1-.08 5.79 5.79 0 0 0 2-.73 5.985 5.985 0 0 0 3-5.19v-6l-6.67-1.67.67-.33z" fill="#ffc477"/><path d="m16 24v3h-2a1 1 0 0 1 -1-1v-1a1 1 0 0 1 1-1z" fill="#ffdaaa"/><path d="m49 13a3.995 3.995 0 0 1 -7.64 1.64 3.931 3.931 0 0 0 1.64.36 4 4 0 0 0 4-4 3.931 3.931 0 0 0 -.36-1.64 3.988 3.988 0 0 1 2.36 3.64z" fill="#ffcd00"/><path d="m61.76 54.35a1.011 1.011 0 0 0 -.76-.35h-1v-33a3.009 3.009 0 0 0 -3-3h-2.88l-1.4-1.8 2.4-.3a1.013 1.013 0 0 0 .88-1v-3.8a1.013 1.013 0 0 0 -.88-1l-2.4-.3 1.49-1.91a1 1 0 0 0 -.09-1.32l-2.69-2.69a.994.994 0 0 0 -1.32-.09l-1.91 1.49-.3-2.4a1.013 1.013 0 0 0 -1-.88h-3.8a1.013 1.013 0 0 0 -1 .88l-.3 2.4-1.91-1.49a.994.994 0 0 0 -1.32.09l-2.69 2.69a1 1 0 0 0 -.09 1.32l1.49 1.91-2.4.3a1.013 1.013 0 0 0 -.88 1v3.8a1.013 1.013 0 0 0 .88 1l2.4.3-1.4 1.8h-4.17a7.024 7.024 0 0 0 -6.71-5h-6a7.024 7.024 0 0 0 -6.71 5h-5.29a3.009 3.009 0 0 0 -3 3v33h-1a1.011 1.011 0 0 0 -.76.35 1.039 1.039 0 0 0 -.23.81l.73 4.33a2.978 2.978 0 0 0 2.95 2.51h52.62a2.978 2.978 0 0 0 2.95-2.51l.73-4.33a1.039 1.039 0 0 0 -.23-.81zm-25.76-40.33v-2.04l2.37-.3a1 1 0 0 0 .82-.67c.09-.24.19-.48.3-.71a.979.979 0 0 0 -.11-1.05l-1.47-1.89 1.45-1.45 1.89 1.47a.979.979 0 0 0 1.05.11c.23-.11.47-.21.71-.3a1 1 0 0 0 .67-.82l.3-2.37h2.04l.3 2.37a1 1 0 0 0 .67.82c.24.09.48.19.71.3a.979.979 0 0 0 1.05-.11l1.89-1.47 1.45 1.45-1.47 1.89a.979.979 0 0 0 -.11 1.05c.11.23.21.47.3.71a1 1 0 0 0 .82.67l2.37.3v2.04l-2.37.3a1 1 0 0 0 -.82.67c-.09.24-.19.48-.3.71a.979.979 0 0 0 .11 1.05l1.47 1.89-1.45 1.45-1.89-1.47a.979.979 0 0 0 -1.05-.11c-.23.11-.47.21-.71.3a1 1 0 0 0 -.67.82l-.3 2.37h-2.04l-.3-2.37a1 1 0 0 0 -.67-.82c-.24-.09-.48-.19-.71-.3a.979.979 0 0 0 -1.05.11l-1.89 1.47-1.45-1.45 1.47-1.89a.979.979 0 0 0 .11-1.05c-.11-.23-.21-.47-.3-.71a1 1 0 0 0 -.82-.67zm-22 5.98a5 5 0 0 1 5-5h6a5 5 0 0 1 5 5v.59l-1 1v-.59a1 1 0 0 0 -.76-.97l-8-2a.978.978 0 0 0 -.69.08l-4 2a.977.977 0 0 0 -.55.89v.59l-1-1zm16 5v1h-1v-1zm-3.78 21h-8.44l-1.24-4.97 4.96 2.84a1.044 1.044 0 0 0 1 0l4.96-2.84zm1.75 1.24 1.81-7.24h1.22a3.009 3.009 0 0 1 3 3v7h-24v-7a3.009 3.009 0 0 1 3-3h1.22l1.81 7.24a1 1 0 0 0 .97.76h10a1 1 0 0 0 .97-.76zm-5.97-5.39-5.18-2.96 2.78-2.09a1.014 1.014 0 0 0 .4-.8v-2.29a7.042 7.042 0 0 0 4 0v2.29a1.014 1.014 0 0 0 .4.8l2.78 2.09zm0-9.85a5 5 0 0 1 -5-5v-5.38l3.12-1.56 6.88 1.72v5.22a5 5 0 0 1 -5 5zm-8-7h1v1h-1zm-8-4a1 1 0 0 1 1-1h5v1a1.033 1.033 0 0 0 .29.71l1.33 1.33a2 2 0 0 0 -1.62 1.96v1a2.006 2.006 0 0 0 2 2h1.08a7.007 7.007 0 0 0 2.92 4.74v2.76l-3.33 2.5h-1.67a5 5 0 0 0 -5 5v8a1 1 0 0 0 1 1h26a1 1 0 0 0 1-1v-8a5 5 0 0 0 -5-5h-1.67l-3.33-2.5v-2.76a7.007 7.007 0 0 0 2.92-4.74h1.08a2.006 2.006 0 0 0 2-2v-1a2 2 0 0 0 -1.62-1.96l1.33-1.33a1.033 1.033 0 0 0 .29-.71v-1h4.44l2.13 2.12a.994.994 0 0 0 1.32.09l1.91-1.49.3 2.4a1.013 1.013 0 0 0 1 .88h3.8a1.013 1.013 0 0 0 1-.88l.3-2.4 1.91 1.49a.994.994 0 0 0 1.32-.09l2.13-2.12h3.44a1 1 0 0 1 1 1v33h-22a1 1 0 0 0 -1 1v1h-6v-1a1 1 0 0 0 -1-1h-22zm53.29 38.16a.989.989 0 0 1 -.98.84h-52.62a.989.989 0 0 1 -.98-.84l-.53-3.16h22.82v1a1 1 0 0 0 1 1h8a1 1 0 0 0 1-1v-1h22.82z"/><path d="m45 18a5 5 0 1 0 -5-5 5.006 5.006 0 0 0 5 5zm0-8a3 3 0 1 1 -3 3 3 3 0 0 1 3-3z"/><path d="m46 31v-5h-2v4h-13v2h14a1 1 0 0 0 1-1z"/><path d="m50 42h2v2h-2z"/><path d="m42 42h6v2h-6z"/><path d="m42 46h10v2h-10z"/><path d="m42 38h10v2h-10z"/><path d="m53 34h-12a3.009 3.009 0 0 0 -3 3v12a3.009 3.009 0 0 0 3 3h12a3.009 3.009 0 0 0 3-3v-12a3.009 3.009 0 0 0 -3-3zm1 15a1 1 0 0 1 -1 1h-12a1 1 0 0 1 -1-1v-12a1 1 0 0 1 1-1h12a1 1 0 0 1 1 1z"/><path d="m19 23h2v2h-2z"/><path d="m23 23h2v2h-2z"/></g></svg>