<svg id="Capa_1" enable-background="new 0 0 512 512" height="512" viewBox="0 0 512 512" width="512" xmlns="http://www.w3.org/2000/svg"><path d="m344.069 426.45c0-42.141 34.088-76.425 75.987-76.425 12.126 0 23.589 2.887 33.77 7.989 14.803-29.785 23.192-63.329 23.322-98.839.452-123.822-99.545-224.566-223.351-225.017-123.803-.452-224.532 99.561-224.984 223.383-.452 123.819 99.546 224.565 223.351 225.017 35.702.13 69.477-8.108 99.489-22.849-4.855-10.061-7.584-21.345-7.584-33.259z" fill="#fb2b3a"/><path d="m54.19 257.541c.436-119.315 93.985-216.507 211.564-223.021-3.959-.223-7.945-.347-11.956-.362-123.804-.452-224.533 99.561-224.985 223.383-.452 123.819 99.546 224.565 223.351 225.017 4.507.016 8.979-.116 13.421-.362-118.223-6.649-211.832-104.847-211.395-224.655z" fill="#e41f2d"/><path d="m402.826 352.03c16.959-27.017 26.837-58.901 26.962-93.029.173-47.233-18.056-91.707-51.329-125.228-33.272-33.52-77.607-52.077-124.835-52.248l-.661-.001c-97.129 0-176.436 79.038-176.79 176.19-.173 47.234 18.057 91.706 51.329 125.229 33.272 33.521 77.606 52.077 124.833 52.248l.663.002c34.164 0 66.115-9.789 93.209-26.695 6.718-27.95 28.742-49.939 56.619-56.468z" fill="#fff"/><path d="m152.88 382.941c-33.273-33.523-51.503-77.995-51.33-125.229.339-92.898 72.87-169.224 164.142-175.731-3.998-.282-8.022-.442-12.067-.457l-.661-.001c-97.129 0-176.436 79.038-176.79 176.19-.173 47.234 18.057 91.706 51.329 125.229 33.272 33.521 77.606 52.077 124.833 52.248l.663.002c4.254 0 8.471-.161 12.652-.458-42.675-3.013-82.349-21.141-112.771-51.793z" fill="#efe2dd"/><path d="m252.449 387.824c-34.518-.126-66.976-13.711-91.336-38.254-24.361-24.542-37.706-57.103-37.581-91.684.259-71.13 58.322-128.996 129.431-128.996l.55.001c34.517.125 66.976 13.711 91.335 38.253 24.362 24.542 37.709 57.104 37.581 91.684-.259 71.109-58.289 128.963-129.366 128.999z" fill="#fb2b3a"/><path d="m191.565 349.57c-24.361-24.542-37.707-57.103-37.58-91.684.24-66.006 50.258-120.58 114.285-128.102-4.865-.568-9.79-.875-14.758-.893l-.55-.001c-71.109 0-129.172 57.867-129.431 128.996-.126 34.582 13.219 67.142 37.581 91.684 24.361 24.543 56.819 38.128 91.336 38.254l.613.002c5.102-.003 10.133-.312 15.084-.894-28.934-3.381-55.725-16.352-76.58-37.362z" fill="#e41f2d"/><path d="m252.57 340.458c-21.837-.081-42.397-8.694-57.848-24.259-15.446-15.562-23.911-36.21-23.83-58.139.165-45.107 36.98-81.804 82.07-81.804l.414.001c21.852.078 42.415 8.693 57.862 24.257s23.91 36.211 23.831 58.141c-.162 45.063-36.932 81.746-81.968 81.805z" fill="#fff"/><path d="m220.1 316.199c-15.447-15.562-23.911-36.21-23.83-58.139.149-40.818 30.313-74.746 69.46-80.829-4.054-.627-8.179-.959-12.353-.973l-.414-.001c-45.09 0-81.905 36.697-82.07 81.804-.082 21.929 8.383 42.577 23.83 58.139 15.451 15.565 36.011 24.179 57.848 24.259l.531.002c4.252-.006 8.43-.34 12.511-.975-17.163-2.655-33.012-10.693-45.513-23.287z" fill="#efe2dd"/><path d="m252.705 293.091c-9.301-.033-17.742-3.582-24.372-10.262-6.63-6.679-10.116-15.185-10.082-24.596.07-19.062 15.607-34.576 34.645-34.611l.307.001c9.348.034 17.795 3.583 24.423 10.262 6.63 6.68 10.118 15.184 10.083 24.596-.069 19.035-15.58 34.543-34.59 34.612z" fill="#fb2b3a"/><path d="m248.635 282.829c-6.629-6.679-10.115-15.185-10.082-24.596.057-15.598 10.472-28.814 24.686-33.124-3.189-.97-6.549-1.473-10.036-1.486l-.307-.001c-19.039.035-34.575 15.549-34.645 34.611-.034 9.411 3.452 17.917 10.082 24.596 6.63 6.68 15.071 10.23 24.372 10.262l.415.002c3.436-.013 6.755-.536 9.892-1.487-5.349-1.631-10.219-4.588-14.377-8.777z" fill="#e41f2d"/><g fill="#5b5555"><path d="m252.98 100.864c-4.142 0-7.5-3.358-7.5-7.5v-80.523c0-4.142 3.358-7.5 7.5-7.5s7.5 3.358 7.5 7.5v80.523c0 4.142-3.358 7.5-7.5 7.5z"/><path d="m252.98 511.373c-4.142 0-7.5-3.358-7.5-7.5v-80.523c0-4.142 3.358-7.5 7.5-7.5s7.5 3.358 7.5 7.5v80.523c0 4.143-3.358 7.5-7.5 7.5z"/><path d="m88.012 265.858h-80.512c-4.142 0-7.5-3.358-7.5-7.5s3.358-7.5 7.5-7.5h80.512c4.142 0 7.5 3.358 7.5 7.5s-3.358 7.5-7.5 7.5z"/><path d="m498.462 265.858h-80.513c-4.143 0-7.5-3.358-7.5-7.5s3.357-7.5 7.5-7.5h80.513c4.143 0 7.5 3.358 7.5 7.5s-3.358 7.5-7.5 7.5z"/></g><path d="m392.397 110.465 70.404-70.054-10.748-37.731c-.637-2.237-2.511-2.723-4.162-1.078l-63.881 63.563c-1.654 1.645-2.513 4.828-1.903 7.073z" fill="#62dbfb"/><path d="m509.936 60.276-37.918-10.696-70.404 70.055 38.418 10.242c2.256.602 5.453-.251 7.107-1.896l63.88-63.563c1.654-1.646 1.166-3.509-1.083-4.142z" fill="#62dbfb"/><path d="m392.397 110.465 16.168-16.087-4.623-17.173c-.647-2.387.266-5.77 2.023-7.519l50.782-50.528-4.694-16.478c-.637-2.237-2.511-2.723-4.162-1.078l-63.881 63.563c-1.654 1.645-2.513 4.828-1.903 7.073z" fill="#01d0fb"/><path d="m423.069 79.945 12.224-12.162-10.279-38.178c-.352-1.306-1.031-2.434-1.921-3.329l-11.443 11.387 11.148 41.406c.079.295.17.587.271.876z" fill="#08a9f1"/><path d="m444.576 76.885-12.278 12.218c.267.091.536.176.808.248l41.688 11.113 11.459-11.402c-.906-.916-2.054-1.615-3.389-1.971z" fill="#08a9f1"/><path d="m252.98 265.858c-1.926 0-3.851-.737-5.316-2.21-2.922-2.936-2.91-7.685.026-10.606l230.999-229.85c2.934-2.922 7.684-2.911 10.606.026 2.922 2.936 2.91 7.685-.026 10.606l-230.999 229.85c-1.463 1.456-3.377 2.184-5.29 2.184z" fill="#cdbfba"/><path d="m497.043 426.45c0 42.76-34.469 77.424-76.986 77.424-42.518 0-76.987-34.664-76.987-77.424s34.47-77.425 76.987-77.425c42.517-.001 76.986 34.664 76.986 77.425z" fill="#97d729"/><path d="m375.791 426.45c0-37.112 25.971-68.11 60.627-75.656-5.275-1.148-10.744-1.77-16.361-1.77-42.518 0-76.987 34.665-76.987 77.425s34.47 77.424 76.987 77.424c5.617 0 11.086-.621 16.361-1.769-34.656-7.545-60.627-38.543-60.627-75.654z" fill="#8bc727"/><path d="m410.824 454.477c-1.996 0-3.91-.796-5.318-2.212l-22.355-22.483c-2.921-2.937-2.907-7.686.03-10.606 2.938-2.92 7.686-2.906 10.606.03l17.037 17.134 35.501-35.706c2.921-2.936 7.668-2.951 10.606-.03 2.938 2.92 2.951 7.669.03 10.607l-40.819 41.055c-1.407 1.415-3.321 2.211-5.318 2.211z" fill="#017b4e"/></svg>